<?xml version="1.0" standalone="no"?>
<!DOCTYPE svg PUBLIC "-//W3C//DTD SVG 20010904//EN"
 "http://www.w3.org/TR/2001/REC-SVG-20010904/DTD/svg10.dtd">
<svg version="1.0" xmlns="http://www.w3.org/2000/svg"
 width="200.000000pt" height="200.000000pt" viewBox="0 0 200.000000 200.000000"
 preserveAspectRatio="xMidYMid meet">
<metadata>
Created by potrace 1.10, written by Peter Selinger 2001-2011
</metadata>
<g transform="translate(0.000000,200.000000) scale(0.100000,-0.100000)"
fill="#000000" stroke="none">
<path d="M875 1681 c-41 -10 -75 -29 -106 -57 -24 -23 -27 -24 -55 -9 -47 24
-141 20 -202 -11 -209 -104 -230 -442 -35 -578 l41 -29 94 64 94 63 34 119 33
119 120 80 c123 83 146 89 155 44 7 -35 -10 -62 -67 -106 l-59 -45 5 -71 c5
-58 2 -79 -16 -118 -39 -90 -28 -108 108 -171 56 -26 86 -35 89 -27 3 9 9 9
24 1 30 -16 64 -3 78 30 12 29 12 29 31 10 10 -10 25 -19 33 -19 18 0 66 46
66 63 0 7 14 23 30 35 17 13 30 28 30 35 0 7 14 26 30 42 31 29 42 86 20 100
-20 13 -9 25 20 23 25 -2 30 -7 30 -28 0 -58 -81 -179 -129 -195 -21 -6 -28
-32 -33 -110 -3 -37 -7 -42 -53 -65 -56 -28 -105 -46 -150 -55 -98 -19 -169
-25 -235 -20 -41 4 -81 7 -87 7 -20 2 -16 6 41 43 43 27 61 33 85 29 38 -8
178 23 184 41 9 22 -4 25 -31 7 -19 -12 -51 -18 -114 -19 -82 -2 -92 -5 -136
-35 -26 -18 -49 -32 -52 -31 -3 1 -58 26 -122 57 l-118 55 0 -47 0 -48 68 -26
c222 -87 497 -75 705 29 l47 23 0 69 c0 60 3 70 20 76 32 10 98 93 120 151 26
72 27 175 1 249 -52 148 -200 232 -336 191 -48 -15 -50 -15 -75 8 -54 51 -153
76 -225 57z m191 -61 c23 -16 47 -30 53 -30 16 0 14 -11 -19 -84 -32 -71 -40
-81 -32 -41 6 34 -22 75 -52 75 -27 0 -226 -129 -253 -164 -10 -12 -31 -70
-47 -128 l-29 -106 -66 -45 c-81 -56 -112 -69 -128 -53 -100 91 -118 131 -118
261 0 82 4 108 22 146 24 49 98 124 139 139 33 13 146 13 180 0 23 -9 33 -6
68 17 62 42 103 53 176 48 51 -4 73 -11 106 -35z m247 -61 c38 -20 54 -9 16
11 -34 19 -13 24 23 6 47 -22 72 -45 102 -90 32 -48 34 -76 4 -76 -12 0 -30
-7 -40 -17 -21 -19 -23 -8 -3 27 24 43 19 77 -15 95 -30 16 -48 20 -37 8 4 -3
2 -12 -4 -19 -8 -10 -3 -17 19 -28 l30 -16 -41 -86 c-41 -85 -42 -86 -48 -53
-8 52 -26 77 -69 99 -50 26 -94 25 -136 -1 -19 -11 -34 -18 -34 -15 0 23 76
165 98 182 28 23 40 21 135 -27z m-312 -260 c-33 -68 -57 -111 -54 -94 3 16 7
49 7 74 1 40 7 50 51 95 28 28 51 50 53 50 2 -1 -24 -57 -57 -125z m266 77
c27 -29 33 -44 33 -80 0 -60 -26 -88 -116 -125 l-70 -28 -27 71 c-31 82 -33
96 -12 137 40 77 134 89 192 25z m203 4 c22 0 50 -26 50 -45 0 -31 -30 -45
-84 -39 -39 5 -55 3 -64 -8 -10 -12 -5 -18 26 -34 74 -39 45 -111 -32 -79 -40
17 -40 18 -26 45 6 11 12 32 14 48 1 15 8 37 15 48 11 16 12 16 7 1 -10 -32
10 -9 29 33 12 27 23 39 33 35 7 -3 22 -5 32 -5z m-396 -201 c25 -60 36 -63
107 -34 35 14 74 35 87 48 24 22 16 1 -60 -160 -10 -21 -13 -21 -39 -8 -36 19
-45 19 -29 0 18 -21 6 -42 -28 -50 -22 -4 -48 3 -106 31 -62 30 -76 41 -76 60
0 12 23 73 52 134 l52 111 12 -48 c7 -26 19 -64 28 -84z m300 -42 c17 -27 -6
-52 -44 -50 -43 2 -46 7 -25 53 17 37 20 39 39 27 11 -8 25 -21 30 -30z m-64
-90 c0 -13 -5 -28 -12 -35 -13 -13 -62 -17 -56 -4 2 4 10 24 17 44 12 31 17
35 33 27 10 -5 18 -20 18 -32z m-121 -68 c-10 -19 -39 -27 -39 -10 0 24 13 38
30 34 16 -4 18 -9 9 -24z m-524 -113 c38 -18 81 -38 95 -45 25 -11 25 -11 -5
-7 -54 6 -166 50 -176 68 -14 27 5 23 86 -16z"/>
<path d="M1180 1556 c0 -12 107 -66 130 -65 20 0 14 6 -30 28 -60 31 -100 46
-100 37z"/>
<path d="M1260 1555 c0 -8 61 -37 67 -31 3 2 -9 12 -26 20 -31 17 -41 19 -41
11z"/>
<path d="M1136 1349 c-25 -20 -33 -50 -20 -83 10 -27 23 -18 30 22 4 20 11 43
17 50 14 17 37 15 37 -4 0 -14 -2 -15 -17 -3 -17 13 -17 12 -3 -5 12 -16 12
-20 0 -30 -14 -11 -40 -50 -40 -61 0 -3 6 -5 14 -5 7 0 24 25 37 55 13 30 27
55 32 55 15 0 6 -39 -18 -74 -30 -44 -30 -47 -7 -39 55 19 71 85 30 123 -28
26 -58 26 -92 -1z"/>
<path d="M980 1126 c0 -7 89 -52 128 -67 26 -9 26 -8 7 7 -38 30 -135 73 -135
60z"/>
<path d="M1040 1036 c0 -8 4 -17 9 -20 11 -7 33 18 24 27 -12 12 -33 7 -33 -7z"/>
<path d="M1305 769 c-118 -55 -296 -86 -431 -75 -96 8 -229 38 -284 65 l-40
19 0 -35 c0 -48 14 -70 60 -93 37 -19 59 -20 350 -20 291 0 313 1 350 20 49
25 62 48 58 104 l-3 43 -60 -28z m33 -46 c-2 -22 -13 -33 -48 -50 -43 -22 -53
-23 -332 -23 -314 0 -354 6 -377 56 -10 23 -9 24 14 20 14 -3 28 -7 32 -9 5
-3 55 -15 112 -27 81 -17 131 -21 230 -19 69 1 132 7 139 12 6 5 12 7 12 4 0
-8 138 30 175 48 42 20 47 19 43 -12z"/>
<path d="M139 557 c-35 -23 -47 -66 -21 -74 8 -3 12 6 12 25 0 16 7 35 15 42
20 17 20 5 -4 -93 l-19 -78 22 3 c16 2 23 13 30 51 5 28 13 46 20 44 11 -4 12
-17 5 -72 -3 -24 0 -31 16 -33 18 -2 20 4 23 53 2 51 0 56 -23 65 -27 10 -30
24 -15 64 8 22 7 26 -9 26 -10 0 -33 -10 -52 -23z"/>
<path d="M224 545 c-38 -50 -25 -52 21 -5 28 28 34 40 23 40 -10 0 -29 -16
-44 -35z"/>
<path d="M1003 570 c-28 -11 -57 -55 -49 -75 9 -24 26 -18 26 9 0 22 27 62 36
53 2 -2 -12 -42 -31 -90 -22 -58 -29 -87 -21 -87 7 0 20 25 30 55 9 30 20 55
23 55 3 0 2 -25 -2 -55 -6 -51 -5 -55 15 -55 12 0 24 9 29 23 5 12 16 38 25
57 l15 35 -5 -40 c-3 -22 -8 -48 -11 -57 -3 -13 1 -18 16 -18 12 0 21 3 21 8
0 11 20 134 25 160 4 17 1 22 -15 22 -15 0 -26 -13 -41 -47 -38 -92 -39 -93
-36 -18 2 75 -4 84 -50 65z"/>
<path d="M285 560 c-4 -6 -1 -17 5 -26 10 -11 16 -12 26 -3 11 9 11 15 3 25
-14 17 -25 18 -34 4z"/>
<path d="M549 563 c-11 -3 -21 -24 -29 -66 -13 -67 -32 -97 -62 -97 -21 0 -24
32 -8 74 10 28 30 35 30 11 0 -8 5 -15 11 -15 23 0 3 35 -22 38 -31 4 -59 -25
-68 -69 -4 -18 -13 -35 -20 -37 -11 -4 -13 5 -7 44 3 26 9 50 14 53 4 4 7 16
8 29 0 15 -5 22 -17 22 -21 0 -26 -7 -32 -41 -16 -85 -20 -100 -28 -105 -21
-13 -26 9 -14 56 13 49 13 50 -10 50 -21 0 -24 -6 -30 -61 -8 -70 4 -89 42
-64 12 8 24 11 27 6 8 -12 138 -12 153 1 9 7 13 7 13 -2 0 -6 8 -10 17 -8 11
2 20 19 27 52 16 71 38 74 34 4 -3 -51 -2 -53 25 -56 28 -3 38 12 13 21 -12 5
-13 13 -5 42 14 49 5 69 -26 62 -24 -4 -25 -2 -19 29 3 19 5 33 3 33 -2 -1
-11 -3 -20 -6z"/>
<path d="M666 495 c-23 -23 -38 -86 -24 -102 12 -15 64 -17 73 -3 3 6 11 10
16 10 6 0 7 -4 4 -10 -3 -5 2 -10 13 -10 15 0 22 12 33 52 20 74 41 77 33 4
-7 -55 -6 -56 18 -56 26 0 66 35 55 47 -4 4 -14 -2 -21 -13 -21 -27 -29 -12
-17 31 14 52 7 63 -45 63 -40 0 -45 -2 -49 -26 -11 -50 -30 -77 -55 -77 -29 0
-38 21 -11 28 23 6 55 52 46 67 -9 15 -51 12 -69 -5z m54 -4 c0 -5 -9 -19 -20
-32 -21 -26 -27 -11 -10 22 11 19 30 26 30 10z"/>
<path d="M1165 486 c-9 -13 -18 -40 -22 -59 -4 -28 -1 -37 14 -46 15 -7 25 -7
39 3 15 11 20 11 32 0 7 -8 18 -11 24 -8 6 4 22 7 36 8 23 1 27 7 36 50 16 71
38 74 34 4 -3 -51 -2 -53 25 -56 28 -3 38 12 13 21 -12 5 -13 13 -5 42 15 53
7 63 -45 63 -44 0 -46 0 -52 -36 -4 -20 -11 -45 -16 -54 -13 -26 -31 -22 -25
5 3 12 8 37 12 55 l7 32 -46 0 c-37 0 -48 -4 -61 -24z m58 -29 c-11 -57 -43
-79 -43 -29 0 31 27 75 40 67 5 -3 7 -20 3 -38z"/>
<path d="M1445 491 c-23 -27 -37 -82 -24 -98 14 -16 59 -17 59 -1 0 7 7 5 18
-5 16 -15 20 -15 39 -2 15 11 24 12 29 4 4 -6 19 -9 38 -5 29 5 30 5 12 -9
-11 -8 -24 -15 -29 -15 -4 0 -7 -10 -5 -22 5 -36 49 -31 67 7 16 33 44 59 49
44 5 -13 66 -11 80 3 9 9 12 9 12 0 0 -7 9 -12 19 -12 15 0 20 10 26 50 7 52
21 72 36 49 6 -10 11 -11 20 -2 18 18 2 31 -40 31 -39 1 -39 0 -46 -44 -6 -44
-25 -64 -59 -64 -26 0 -18 24 14 42 21 12 30 25 30 43 0 21 -5 25 -29 25 -34
0 -56 -25 -72 -82 -5 -21 -14 -38 -20 -38 -9 0 -7 15 11 87 l8 31 -43 0 c-50
0 -74 -19 -84 -69 -8 -39 -31 -51 -31 -17 0 13 4 37 9 55 l9 31 -43 0 c-29 0
-49 -6 -60 -17z m50 -40 c-7 -43 -21 -59 -36 -44 -11 11 6 74 23 84 18 12 21
5 13 -40z m140 0 c-7 -43 -21 -59 -36 -44 -11 11 6 74 23 84 18 12 21 5 13
-40z m135 35 c0 -17 -30 -50 -38 -42 -5 6 25 56 33 56 3 0 5 -6 5 -14z m-156
-141 c-6 -16 -24 -21 -24 -7 0 11 11 22 21 22 5 0 6 -7 3 -15z"/>
</g>
</svg>
